<svg width="922" height="922" viewBox="0 0 922 922" fill="none" xmlns="http://www.w3.org/2000/svg">
<rect width="922" height="922" rx="256" fill="white"/>
<path d="M364.421 254.5H351.785L349.639 266.953L309.384 500.598L309.374 500.659L309.364 500.721C307.826 510.114 304.352 518.232 298.979 525.332C293.5 532.573 286.613 538.316 278.128 542.611C269.994 546.672 261.01 548.774 250.942 548.774C240.99 548.774 233.473 546.676 227.714 543.214C221.789 539.53 217.715 534.737 215.122 528.57C212.587 522.54 211.673 515.083 213.212 505.628L253.456 272.047L256.479 254.5H238.674H132.095H119.458L117.313 266.953L75.5245 509.47L75.5197 509.498L75.5149 509.526C70.2621 540.718 73.1095 569.025 85.31 593.559L85.3341 593.607L85.3585 593.656C97.599 617.831 117.152 636.233 143.129 648.964L143.158 648.978L143.187 648.992C169.133 661.57 200.135 667.5 235.607 667.5C270.923 667.5 303.443 661.538 332.955 649.36L332.982 649.349L333.008 649.338C362.486 637.043 387.108 619.489 406.532 596.581C426.264 573.337 438.718 545.862 443.999 514.539C444 514.529 444.002 514.518 444.004 514.508L485.782 272.047L488.806 254.5H471H364.421ZM476.194 650.097L473.37 667.5H491H592.632H605.381L607.436 654.918L623.95 553.797H667.21C697.869 553.797 726.016 548.072 751.383 536.325L751.399 536.318L751.415 536.31C776.852 524.456 797.948 507.515 814.459 485.543C831.205 463.299 841.806 437.074 846.534 407.267C851.245 378.063 849.321 351.422 839.763 327.981C830.229 304.602 814.37 286.291 792.552 273.413C770.706 260.519 744.517 254.5 714.736 254.5H553.149H540.387L538.343 267.097L476.194 650.097ZM659.899 443.008H642.043L654.369 367.533H677.447C687.73 367.533 694.827 369.373 699.626 372.023L699.751 372.092L699.877 372.159C704.68 374.692 707.633 378.035 709.416 382.456L709.47 382.588L709.526 382.72C711.419 387.167 712.292 393.519 710.882 402.592C709.493 411.522 706.568 418.708 702.399 424.532C698.252 430.202 692.807 434.707 685.753 438.044C678.81 441.207 670.31 443.008 659.899 443.008Z" fill="white" stroke="#252525" stroke-width="30"/>
<path fill-rule="evenodd" clip-rule="evenodd" d="M197.227 516.507C197.451 522.935 198.717 528.894 201.025 534.384C204.858 543.503 211.056 550.712 219.618 556.011C228.18 561.186 238.532 563.774 250.672 563.774C262.94 563.774 274.25 561.186 284.601 556.011C295.08 550.712 303.77 543.503 310.67 534.384C317.571 525.265 321.98 514.852 323.897 503.145L327.809 480.44L439.709 449.532L428.942 512.018C424.086 540.853 412.713 565.808 394.822 586.88C377.059 607.829 354.439 624.034 326.964 635.494C299.489 646.832 268.946 652.5 235.337 652.5C201.472 652.5 172.846 646.832 149.46 635.494C126.074 624.034 109.078 607.829 98.4712 586.88C92.4453 574.762 88.9549 561.361 88 546.676L197.227 516.507ZM527.605 425.255L490.73 652.5H592.362L610.931 538.797H666.941C695.7 538.797 721.656 533.436 744.81 522.714C768.085 511.867 787.217 496.47 802.206 476.522C817.317 456.45 827.065 432.574 831.452 404.897C835.244 381.407 834.302 360.479 828.628 342.111L720.634 371.939C721.554 373.484 722.361 375.119 723.057 376.845C726.348 384.575 727.14 393.925 725.434 404.897C723.728 415.868 720.011 425.343 714.284 433.322C708.556 441.177 701.062 447.286 691.8 451.65C682.539 455.889 671.815 458.008 659.629 458.008H624.125L634.286 395.789L527.605 425.255Z" fill="#FFA600"/>
</svg>
