<svg width="1033" height="1033" viewBox="0 0 1033 1033" fill="none" xmlns="http://www.w3.org/2000/svg">
<rect x="8.5" y="8.5" width="1016" height="1016" rx="247.5" fill="white"/>
<rect x="8.5" y="8.5" width="1016" height="1016" rx="247.5" stroke="#252525" stroke-width="17"/>
<path d="M536.51 716.5L538.11 706.639L600.259 323.639L601.417 316.5H608.649H770.236C799.152 316.5 824.131 322.342 844.748 334.511C865.35 346.671 880.251 363.881 889.244 385.936C898.252 408.027 900.186 433.418 895.614 461.747C895.614 461.749 895.614 461.75 895.614 461.751L887.222 460.396C882.835 488.074 873.086 511.949 857.976 532.022L536.51 716.5ZM536.51 716.5H546.5H648.132H655.356L656.521 709.37L673.925 602.797H722.71C752.546 602.797 779.744 597.23 804.151 585.927L804.16 585.923L804.17 585.918C828.671 574.501 848.916 558.228 864.768 537.132L536.51 716.5ZM419.921 316.5H412.76L411.545 323.557L371.29 557.202L371.284 557.236L371.278 557.271C369.576 567.667 365.697 576.78 359.662 584.754C353.567 592.809 345.899 599.187 336.55 603.918C327.455 608.461 317.464 610.774 306.442 610.774C295.539 610.774 286.794 608.462 279.822 604.258C272.754 599.874 267.76 594.035 264.63 586.589C261.533 579.222 260.599 570.484 262.302 560.052L302.55 326.443L304.263 316.5H294.174H187.595H180.434L179.218 323.557L137.43 566.074L137.427 566.09L137.425 566.106C132.344 596.277 135.176 623.131 146.63 646.165L146.644 646.192L146.658 646.219C158.19 668.997 176.635 686.447 201.49 698.627L201.506 698.635L201.522 698.643C226.359 710.683 256.331 716.5 291.107 716.5C325.683 716.5 357.346 710.665 385.976 698.852L385.991 698.845L386.006 698.839C414.614 686.906 438.367 669.938 457.071 647.881C476.008 625.576 487.996 599.191 493.092 568.941C493.093 568.937 493.093 568.933 493.094 568.929L534.877 326.443L536.59 316.5H526.5H419.921ZM715.399 505.008H689.895L704.344 416.533H732.947C743.949 416.533 752.221 418.494 758.267 421.833L758.338 421.872L758.41 421.91C764.511 425.128 768.561 429.615 770.944 435.525L770.975 435.599L771.006 435.674C773.505 441.544 774.343 449.195 772.804 459.09C771.278 468.904 768.011 477.08 763.168 483.837C758.337 490.455 752.004 495.656 743.991 499.44C736.044 503.068 726.581 505.008 715.399 505.008Z" fill="white" stroke="#252525" stroke-width="17"/>
<path fill-rule="evenodd" clip-rule="evenodd" d="M252.727 572.007C252.951 578.435 254.217 584.394 256.525 589.884C260.358 599.003 266.556 606.212 275.118 611.511C283.68 616.686 294.032 619.274 306.172 619.274C318.44 619.274 329.75 616.686 340.101 611.511C350.58 606.212 359.27 599.003 366.17 589.884C373.071 580.765 377.48 570.352 379.397 558.645L383.309 535.94L495.209 505.032L484.442 567.518C479.586 596.353 468.213 621.308 450.322 642.38C432.559 663.329 409.939 679.534 382.464 690.994C354.989 702.332 324.446 708 290.837 708C256.972 708 228.346 702.332 204.96 690.994C181.574 679.534 164.578 663.329 153.971 642.38C147.945 630.262 144.455 616.861 143.5 602.176L252.727 572.007ZM583.105 480.755L546.23 708H647.862L666.431 594.297H722.441C751.2 594.297 777.156 588.936 800.31 578.214C823.585 567.367 842.717 551.97 857.706 532.022C872.817 511.95 882.565 488.074 886.952 460.397C890.744 436.907 889.802 415.979 884.128 397.611L776.134 427.439C777.054 428.984 777.861 430.619 778.557 432.345C781.848 440.075 782.64 449.425 780.934 460.397C779.228 471.368 775.511 480.843 769.784 488.822C764.056 496.677 756.562 502.786 747.3 507.15C738.039 511.389 727.315 513.508 715.129 513.508H679.625L689.786 451.289L583.105 480.755Z" fill="#FFA600"/>
</svg>
